<svg width="100" height="82" viewBox="0 0 100 82" fill="none" xmlns="http://www.w3.org/2000/svg">
<path d="M0.859238 37.2678C1.07152 35.9538 1.32413 34.6632 1.60009 33.4065C3.85023 23.1768 9.04891 12.3231 19.2383 8.19214C30.9602 3.44136 47.5986 4.75748 58.0851 14.0361C66.1516 21.1687 82.497 25.4737 91.625 36.2871C101.086 47.4975 103.063 68.5066 90.7759 76.9871C82.0364 83.0179 71.2314 78.2608 61.4985 76.2675C55.9559 75.1339 51.1585 75.775 45.6944 76.2675C36.1992 77.1166 26.3644 77.7534 16.7886 75.6307C12.059 74.5693 7.85379 72.646 5.18758 68.2604C-0.412308 59.0369 -0.798653 47.4253 0.859238 37.2678Z" fill="#E7EDF6"/>
<path d="M22.251 37.589C22.251 37.589 23.2063 38.9709 23.1702 39.1492C23.1341 39.3275 22.907 39.3424 23.1299 39.5929C23.3528 39.8434 23.8134 40.3104 23.8389 40.5651C23.8248 40.7692 23.7417 40.9623 23.6032 41.1128C23.6032 41.1128 23.8325 42.223 23.7582 42.4799C23.6839 42.7367 22.8497 42.9044 22.8497 42.9044L23.0725 43.7196L20.6696 44.4074L20.2577 42.966L18.8291 38.5761L22.251 37.589Z" fill="white" stroke="#263238" stroke-width="0.2" stroke-linecap="round" stroke-linejoin="round"/>
<path d="M19.0129 37.4172C19.1657 37.3875 19.8068 36.9247 20.7408 36.757C21.6749 36.5893 22.0357 36.9693 22.144 37.3578C22.2523 37.7462 22.4645 37.5467 22.1928 37.8099C21.9211 38.0731 22.3945 38.3088 22.3945 38.3088C22.3789 38.4569 22.4125 38.6061 22.49 38.7333C22.6237 39.0157 22.2098 39.5272 22.2098 39.5272C22.2967 39.7177 22.3574 39.9191 22.3902 40.1259C22.3902 40.2936 22.2459 40.3742 22.1164 40.2893C21.9869 40.2044 21.73 39.6652 21.7237 39.9306C21.7173 40.1959 21.9933 42.0852 21.8319 42.3739C21.6706 42.6626 20.571 42.9216 20.2568 42.9683C19.9427 43.015 18.945 41.979 18.4206 41.338C17.8963 40.6969 17.5524 39.3638 17.7265 38.6399C17.8135 38.3405 17.9785 38.0696 18.2045 37.8548C18.4305 37.6399 18.7095 37.489 19.0129 37.4172Z" fill="#263238" stroke="#263238" stroke-width="0.2" stroke-linecap="round" stroke-linejoin="round"/>
<path d="M21.9715 39.822C22.0264 40.1087 22.0973 40.3922 22.1837 40.6711C22.2984 40.9938 22.5786 41.0956 22.4852 41.2909C22.3918 41.4862 22.2602 41.4523 22.0606 41.2379C21.839 40.9833 21.6772 40.6823 21.5872 40.3569C21.5448 40.0958 21.3877 39.546 21.9715 39.822Z" fill="white" stroke="#263238" stroke-width="0.2" stroke-linecap="round" stroke-linejoin="round"/>
<path d="M21.7704 40.8537C21.3853 41.1562 20.9602 41.4041 20.5073 41.5903C19.8656 41.8343 19.1729 41.9131 18.4928 41.8196C18.2803 41.7972 18.0811 41.7054 17.926 41.5585C17.752 41.3462 17.752 40.9047 17.752 40.7752C17.752 40.6457 17.026 39.372 17.6352 38.109C18.2444 36.8459 20.8873 36.0308 21.3671 36.1178C21.8468 36.2048 22.715 37.5103 22.715 37.5103C22.715 37.5103 23.7106 37.6971 23.7148 38.1281C23.7148 38.6651 23.1714 38.8286 22.9825 39.3359C22.7204 39.9405 22.302 40.4644 21.7704 40.8537Z" fill="white" stroke="#263238" stroke-width="0.2" stroke-linecap="round" stroke-linejoin="round"/>
<path d="M22.1934 37.8094C22.1934 37.8094 21.1914 36.7077 20.9919 36.6058C20.8454 36.5336 20.2234 36.5931 19.5675 36.9582" stroke="#263238" stroke-width="0.2" stroke-linecap="round" stroke-linejoin="round"/>
<path d="M23.3323 43.6967L24.0137 44.9428C24.0137 44.9428 22.2985 44.4439 21.3623 44.4439C20.7039 44.4559 20.0474 44.5191 19.3988 44.6328L19.836 43.4165C19.836 43.4165 22.2093 43.166 23.3323 43.6967Z" fill="white" stroke="#263238" stroke-width="0.2" stroke-linecap="round" stroke-linejoin="round"/>
<path d="M16.8782 60.1369C16.875 60.6578 16.9062 61.1783 16.9716 61.695C17.065 62.162 17.687 62.8795 17.9375 63.0048C18.188 63.13 18.4979 63.1597 18.5616 63.0048C18.6253 62.8498 18.7165 62.9114 18.6231 62.1005C18.5297 61.2896 18.1858 59.7314 18.1858 59.7314L16.8782 60.1369Z" fill="white" stroke="#263238" stroke-width="0.2" stroke-linecap="round" stroke-linejoin="round"/>
<path d="M16.6588 59.1393L16.8711 60.137C17.1371 60.1922 17.4105 60.2023 17.6799 60.1667C17.7957 60.149 17.9042 60.0986 17.9925 60.0216C18.0808 59.9445 18.1454 59.8439 18.1787 59.7315L18.0853 58.8569L16.6588 59.1393Z" fill="white" stroke="#263238" stroke-width="0.2" stroke-linecap="round" stroke-linejoin="round"/>
<path d="M16.8121 45.7231C16.8121 45.7231 16.3748 48.3724 16.0946 50.3359C15.8578 51.9142 15.7647 53.5107 15.8165 55.1058C15.8802 56.042 16.2538 59.0457 16.3791 59.2622C16.5043 59.4787 17.3449 59.5743 17.6867 59.4193C18.0285 59.2643 18.1855 59.0754 18.1855 58.4832C18.1855 57.8909 17.8756 52.3632 17.8756 52.3632L16.8121 45.7231Z" fill="white" stroke="#263238" stroke-width="0.2" stroke-linecap="round" stroke-linejoin="round"/>
<path d="M23.5463 79.9508C23.6692 79.9515 23.7902 79.9821 23.8987 80.04C24.0833 80.1398 24.8857 80.3584 25.4016 80.541C26.2082 80.8276 26.8366 80.6747 26.7729 80.8849C26.7092 81.095 25.4504 81.5217 24.7223 81.5217C23.9942 81.5217 23.6439 81.3519 23.2958 81.3582C22.9476 81.3646 23.2045 81.5323 22.6271 81.5981C22.0497 81.6639 21.8587 81.6661 21.657 81.3498C21.4553 81.0335 21.3407 80.9528 21.4044 80.5516V80.5495C21.436 80.377 21.5278 80.2213 21.6635 80.1101C21.7992 79.9989 21.9699 79.9395 22.1452 79.9424L23.5463 79.9508Z" fill="#263238" stroke="#263238" stroke-width="0.2" stroke-linecap="round" stroke-linejoin="round"/>
<path d="M19.0444 79.5646C19.1517 79.5631 19.2571 79.5926 19.348 79.6496C19.5072 79.7493 20.1971 79.9595 20.6407 80.1399C21.3349 80.4201 21.8868 80.2333 21.8231 80.4626C21.7594 80.6918 21.0165 81.0018 20.3818 81.0378C20.0389 81.0586 19.6947 81.0458 19.3543 80.9996C18.6708 80.9614 19.106 81.2119 18.8597 81.3032C18.6875 81.3577 18.5075 81.3835 18.3269 81.3796C17.6052 81.4178 17.516 81.4751 17.3504 81.1419C17.1848 80.8086 17.0893 80.7173 17.1573 80.2928V80.28C17.1749 80.1082 17.2505 79.9475 17.3716 79.8244C17.4928 79.7013 17.6523 79.6232 17.8238 79.6028L19.0444 79.5646Z" fill="#263238" stroke="#263238" stroke-width="0.2" stroke-linecap="round" stroke-linejoin="round"/>
<path d="M25.5127 56.9568C25.5127 56.9568 25.3875 61.3213 25.3875 62.786C25.3875 64.2507 25.0138 70.8716 24.515 73.2725C24.1268 75.3262 23.8666 77.402 23.7359 79.488C23.7359 79.8616 23.859 79.955 23.6107 80.2034C23.3623 80.4517 22.4262 80.9209 22.0823 80.7659C21.7384 80.6109 21.5537 80.0166 21.5537 80.0166C21.5537 80.0166 21.5537 76.7751 21.4582 74.6544C21.3627 72.5338 21.5219 69.7614 21.5219 69.7614C21.5219 69.7614 20.3055 75.3719 19.9638 76.4949C19.622 77.6178 19.3397 79.6536 19.276 80.0569C19.2123 80.4602 18.9406 80.4815 18.5924 80.4815C18.1679 80.4815 17.6563 80.4263 17.4695 80.1142C17.2827 79.8022 17.6818 76.5288 17.6818 75.2212C17.6818 73.9136 18.7049 65.7791 18.6222 63.7794C18.5394 61.7798 17.9365 58.3239 18.1233 57.2944C18.2353 56.6841 18.2978 56.0658 18.3101 55.4454C18.3101 55.4454 24.7336 54.7109 25.5127 56.9568Z" fill="#5E5E5E" stroke="#263238" stroke-width="0.2" stroke-linecap="round" stroke-linejoin="round"/>
<path d="M32.472 36.608C32.472 36.608 32.351 36.3957 32.1705 36.037C32.0417 35.7026 31.9909 35.3432 32.022 34.9862C32.022 34.7463 31.7524 34.6572 31.7524 34.3876C31.7524 34.118 32.1408 34.1456 32.351 34.326C32.5611 34.5065 32.6227 35.0478 32.6227 35.0478C32.6227 35.0478 32.9538 34.4852 33.1322 34.0862C33.2914 33.7295 33.5121 33.1139 33.8115 33.0248C34.1108 32.9356 34.098 33.305 34.0683 33.3941C34.0185 33.5689 33.956 33.7399 33.8815 33.9057C33.8115 34.0437 33.6692 34.447 33.6692 34.447C33.6692 34.447 34.0938 34.1159 34.2403 34.1159C34.2792 34.115 34.3176 34.1249 34.3513 34.1444C34.385 34.1639 34.4126 34.1923 34.4313 34.2265C34.4499 34.2607 34.4588 34.2994 34.4569 34.3383C34.455 34.3771 34.4425 34.4148 34.4207 34.447C34.4207 34.447 34.7816 34.5977 34.6903 34.8376C34.599 35.0775 34.5714 35.1666 34.5714 35.1666C34.5714 35.1666 34.6606 35.2876 34.5714 35.5912C34.4822 35.8948 34.0895 36.4021 33.9346 36.6526C33.8482 36.7929 33.7358 36.9154 33.6034 37.0135L32.472 36.608Z" fill="white" stroke="#263238" stroke-width="0.2" stroke-linecap="round" stroke-linejoin="round"/>
<path d="M34.4141 34.4365C34.3181 34.5841 34.2064 34.7208 34.0808 34.8441" stroke="#263238" stroke-width="0.2" stroke-linecap="round" stroke-linejoin="round"/>
<path d="M34.5732 35.1554C34.5139 35.2531 34.4426 35.3429 34.361 35.4229" stroke="#263238" stroke-width="0.2" stroke-linecap="round" stroke-linejoin="round"/>
<path d="M33.4011 38.1603L33.9297 37.0055C33.8252 36.8553 33.6911 36.728 33.5356 36.6316C33.38 36.5353 33.2064 36.4718 33.0254 36.4451C32.3716 36.3198 32.2782 36.4451 32.2782 36.4451L31.9343 37.6296C31.9343 37.6296 33.0572 37.723 33.4011 38.1603Z" fill="white" stroke="#263238" stroke-width="0.2" stroke-linecap="round" stroke-linejoin="round"/>
<path d="M26.0654 44.2838L30.2239 40.2781C30.2239 40.2781 31.1898 38.6266 31.4381 38.0343C31.6865 37.442 32.0304 37.285 32.5929 37.3486C33.1554 37.4123 33.6543 38.0025 33.6543 38.4398C33.6543 38.6881 33.0175 40.1847 32.4358 41.4774C32.4061 41.5687 31.5867 44.0991 31.1261 44.2838C30.6654 44.4684 25.7873 49.5291 25.7873 49.5291L24.0126 44.9418L26.0654 44.2838Z" fill="white" stroke="#263238" stroke-width="0.2" stroke-linecap="round" stroke-linejoin="round"/>
<path d="M26.5596 48.6487C26.3006 51.109 26.4046 57.5643 26.4046 58.0037C26.4046 58.5344 26.4365 58.5641 26.2496 58.7212C26.0628 58.8783 24.2903 58.9335 22.5751 58.9102C20.8599 58.8868 18.7117 58.5259 18.5546 58.5259C18.4286 58.5169 18.3064 58.4784 18.198 58.4135C18.0896 58.3486 17.998 58.2591 17.9305 58.1523C17.8286 57.9974 16.8139 51.6354 16.5167 48.7145C16.2705 46.2987 16.8351 45.7787 16.8203 45.7235C16.7884 45.5982 19.2848 44.6939 19.5035 44.6324C19.7221 44.5708 20.9682 43.7281 23.7745 44.7873C23.7745 44.7873 24.9272 44.4222 25.3453 44.6026C25.3453 44.6026 24.5366 46.2202 25.1437 47.7719C25.7508 49.3237 26.5596 48.6487 26.5596 48.6487Z" fill="#0F50A4" stroke="#263238" stroke-width="0.2" stroke-linecap="round" stroke-linejoin="round"/>
<path d="M26.375 54.7129C26.375 55.1078 26.375 55.4856 26.375 55.8359C25.2351 55.7212 21.6391 55.3986 17.4275 55.3943C17.3723 55.0398 17.3129 54.6662 17.2555 54.2778C21.4544 54.2735 25.0737 54.5856 26.375 54.7129Z" fill="white" stroke="#263238" stroke-width="0.2" stroke-linecap="round" stroke-linejoin="round"/>
<path d="M26.3846 53.0424C25.0388 52.9065 20.8123 52.5286 17.0317 52.7515C16.8194 51.2656 16.6071 49.7648 16.5095 48.7183C16.2632 46.3025 16.8279 45.7825 16.813 45.7273C16.7982 45.6721 17.4689 45.3834 18.1461 45.1244C17.8808 45.5787 17.4286 46.6273 17.4711 48.455C17.5008 49.6756 17.6048 50.7901 17.7067 51.6031C19.3328 51.5373 20.9843 51.567 22.4363 51.635C22.4108 50.9981 22.4044 50.2382 22.4214 49.3869C22.4527 47.7651 22.7763 46.1622 23.3766 44.6553C23.5019 44.6956 23.625 44.738 23.7566 44.7869C24.0403 44.6997 24.3297 44.6323 24.6227 44.5852C23.9396 46.1022 23.5671 47.7407 23.5274 49.4039C23.5104 50.2827 23.5274 51.0469 23.5486 51.6901C24.7925 51.7666 25.8009 51.86 26.3889 51.9215C26.3931 52.2909 26.3889 52.6666 26.3846 53.0424Z" fill="white" stroke="#263238" stroke-width="0.2" stroke-linecap="round" stroke-linejoin="round"/>
<path d="M18.8682 51.1436C19.7598 52.4172 21.1693 54.2938 22.2646 55.0006" stroke="#263238" stroke-width="0.2" stroke-linecap="round" stroke-linejoin="round"/>
<path d="M18.0002 49.838C18.0002 49.838 18.1616 50.097 18.4248 50.5024" stroke="#263238" stroke-width="0.2" stroke-linecap="round" stroke-linejoin="round"/>
<path d="M20.5834 54.2703C21.2778 54.8994 22.0289 55.4629 22.8271 55.9536" stroke="#263238" stroke-width="0.2" stroke-linecap="round" stroke-linejoin="round"/>
<path d="M18.8396 74.606C18.5069 74.9558 18.1143 75.2434 17.6805 75.4551C17.6805 75.3638 17.6805 75.2789 17.6805 75.2004C17.6805 73.8906 18.7101 65.7731 18.6167 63.7777C18.5997 63.4147 18.5657 63.0029 18.5233 62.5656C18.5572 62.4778 18.5992 62.3932 18.6485 62.313C19.1566 61.5209 19.6146 60.6978 20.0198 59.8484L18.4001 61.3981C18.3874 61.2813 18.3725 61.1624 18.3598 61.0457C18.7844 60.2709 19.3575 59.2074 19.3957 58.8826L21.3062 59.9121C21.3062 59.9121 21.5567 67.3121 21.5185 69.7448C21.5185 69.7448 21.3338 70.5939 21.0939 71.6957C20.5038 73.0415 19.4509 73.9798 18.8396 74.606Z" fill="#263238" stroke="#263238" stroke-width="0.2" stroke-linecap="round" stroke-linejoin="round"/>
<path d="M23.1266 79.0068C23.0854 79.4853 23.0911 79.9666 23.1436 80.444" stroke="#263238" stroke-width="0.2" stroke-linecap="round" stroke-linejoin="round"/>
<path d="M23.2656 77.2189C23.238 77.6328 23.2104 78.0001 23.1871 78.2994" stroke="#263238" stroke-width="0.2" stroke-linecap="round" stroke-linejoin="round"/>
<path d="M24.0713 61.0068C23.9949 64.1316 23.8081 70.9945 23.6467 72.525C23.5257 73.6331 23.4154 75.1658 23.3241 76.467" stroke="#263238" stroke-width="0.2" stroke-linecap="round" stroke-linejoin="round"/>
<path d="M47.5636 38.3881H41.8039C41.7612 38.3884 41.7194 38.376 41.6838 38.3525C41.6482 38.329 41.6203 38.2954 41.6039 38.256C41.5878 38.2164 41.5838 38.1729 41.5921 38.131C41.6005 38.0891 41.621 38.0505 41.651 38.0201L44.378 35.2912L41.651 32.5642C41.6162 32.5226 41.5982 32.4695 41.6006 32.4153C41.603 32.3611 41.6256 32.3098 41.664 32.2715C41.7023 32.2331 41.7537 32.2105 41.8079 32.2081C41.8621 32.2057 41.9152 32.2237 41.9568 32.2585L44.6838 34.9855L47.4107 32.2585C47.4523 32.2237 47.5055 32.2057 47.5596 32.2081C47.6138 32.2105 47.6652 32.2331 47.7035 32.2715C47.7419 32.3098 47.7645 32.3611 47.7669 32.4153C47.7693 32.4695 47.7513 32.5226 47.7165 32.5642L44.9895 35.2912L47.7165 38.0182C47.7469 38.0483 47.7676 38.0868 47.776 38.1287C47.7844 38.1706 47.7802 38.2141 47.7638 38.2536C47.7474 38.2931 47.7196 38.3268 47.6839 38.3504C47.6483 38.374 47.6064 38.3865 47.5636 38.3862V38.3881ZM42.3248 37.9578H47.0427L44.6838 35.5988L42.3248 37.9578Z" fill="#263238"/>
<path d="M62.1078 30.5637H39.9013C38.7266 30.5637 37.7744 31.516 37.7744 32.6906V79.5136C37.7744 80.6883 38.7266 81.6405 39.9013 81.6405H62.1078C63.2825 81.6405 64.2347 80.6883 64.2347 79.5136V32.6906C64.2347 31.516 63.2825 30.5637 62.1078 30.5637Z" fill="#0F50A4"/>
<path opacity="0.2" d="M62.1078 30.5637H39.9013C38.7266 30.5637 37.7744 31.516 37.7744 32.6906V79.5136C37.7744 80.6883 38.7266 81.6405 39.9013 81.6405H62.1078C63.2825 81.6405 64.2347 80.6883 64.2347 79.5136V32.6906C64.2347 31.516 63.2825 30.5637 62.1078 30.5637Z" fill="black"/>
<path d="M64.8246 30.5636H42.6181C41.4434 30.5636 40.4912 31.5158 40.4912 32.6905V79.5135C40.4912 80.6881 41.4434 81.6404 42.6181 81.6404H64.8246C65.9993 81.6404 66.9515 80.6881 66.9515 79.5135V32.6905C66.9515 31.5158 65.9993 30.5636 64.8246 30.5636Z" fill="#0F50A4"/>
<path d="M66.0645 79.5137V32.6887C66.0645 32.004 65.5093 31.4489 64.8246 31.4489H42.6161C41.9314 31.4489 41.3762 32.004 41.3762 32.6887V79.5137C41.3762 80.1984 41.9314 80.7536 42.6161 80.7536H64.8246C65.5093 80.7536 66.0645 80.1984 66.0645 79.5137Z" fill="white"/>
<path opacity="0.1" d="M65.7107 59.8731L64.6936 38.9273C64.6525 38.0799 63.9322 37.4263 63.0848 37.4675L44.9552 38.3478C44.1077 38.3889 43.4541 39.1093 43.4953 39.9567L44.5124 60.9024C44.5535 61.7498 45.2738 62.4034 46.1213 62.3623L64.2509 61.4819C65.0983 61.4408 65.7519 60.7205 65.7107 59.8731Z" fill="black"/>
<path d="M65.3574 33.8719V32.9849C65.3574 32.5284 64.9873 32.1583 64.5308 32.1583H42.9131C42.4566 32.1583 42.0865 32.5284 42.0865 32.9849V33.8719C42.0865 34.3284 42.4566 34.6985 42.9131 34.6985H64.5308C64.9873 34.6985 65.3574 34.3284 65.3574 33.8719Z" fill="#0F50A4"/>
<path d="M44.5465 34.0228C44.3887 34.0228 44.2373 33.9603 44.1255 33.8488C44.0137 33.7374 43.9507 33.5862 43.9502 33.4284C43.9507 33.2704 44.0137 33.119 44.1254 33.0072C44.2371 32.8955 44.3885 32.8325 44.5465 32.832C44.7046 32.8325 44.856 32.8955 44.9677 33.0072C45.0794 33.119 45.1424 33.2704 45.1429 33.4284C45.1424 33.5862 45.0793 33.7374 44.9676 33.8488C44.8558 33.9603 44.7044 34.0228 44.5465 34.0228Z" fill="white"/>
<path d="M46.32 34.0228C46.1621 34.0228 46.0108 33.9603 45.899 33.8488C45.7872 33.7374 45.7241 33.5862 45.7236 33.4284C45.7241 33.2704 45.7871 33.119 45.8988 33.0072C46.0106 32.8955 46.162 32.8325 46.32 32.832C46.4778 32.8325 46.629 32.8956 46.7404 33.0074C46.8519 33.1191 46.9144 33.2705 46.9144 33.4284C46.9139 33.5859 46.8512 33.7368 46.7398 33.8482C46.6284 33.9596 46.4775 34.0223 46.32 34.0228Z" fill="white"/>
<path d="M48.0924 34.0228C47.9346 34.0228 47.7832 33.9603 47.6714 33.8488C47.5596 33.7374 47.4966 33.5862 47.4961 33.4284C47.4966 33.2704 47.5596 33.119 47.6713 33.0072C47.783 32.8955 47.9344 32.8325 48.0924 32.832C48.2503 32.8325 48.4015 32.8956 48.5129 33.0074C48.6243 33.1191 48.6869 33.2705 48.6869 33.4284C48.6864 33.5859 48.6236 33.7368 48.5122 33.8482C48.4009 33.9596 48.25 34.0223 48.0924 34.0228Z" fill="white"/>
<path d="M63.7 32.6885H62.8734C62.6942 32.6885 62.5488 32.8338 62.5488 33.0131V33.8397C62.5488 34.0189 62.6942 34.1643 62.8734 34.1643H63.7C63.8793 34.1643 64.0246 34.0189 64.0246 33.8397V33.0131C64.0246 32.8338 63.8793 32.6885 63.7 32.6885Z" fill="white"/>
<path d="M49.4769 70.7124C51.5867 69.8385 52.5886 67.4197 51.7147 65.31C50.8408 63.2002 48.422 62.1983 46.3123 63.0722C44.2025 63.9461 43.2006 66.3649 44.0745 68.4746C44.9484 70.5844 47.3672 71.5863 49.4769 70.7124Z" fill="#0F50A4"/>
<path d="M62.6563 65.0124H54.5942C54.4573 65.0119 54.326 64.9573 54.2292 64.8604C54.1323 64.7636 54.0776 64.6323 54.0771 64.4954C54.0776 64.3584 54.1323 64.2271 54.2292 64.1303C54.326 64.0334 54.4573 63.9788 54.5942 63.9783H62.6563C62.7935 63.9783 62.925 64.0327 63.0219 64.1297C63.1189 64.2267 63.1734 64.3582 63.1734 64.4954C63.1734 64.6325 63.1189 64.764 63.0219 64.861C62.925 64.958 62.7935 65.0124 62.6563 65.0124Z" fill="#0F50A4"/>
<path d="M62.6563 67.4089H54.5942C54.4573 67.4084 54.326 67.3538 54.2292 67.2569C54.1323 67.1601 54.0776 67.0288 54.0771 66.8919C54.0776 66.7549 54.1323 66.6236 54.2292 66.5268C54.326 66.4299 54.4573 66.3753 54.5942 66.3748H62.6563C62.7935 66.3748 62.925 66.4292 63.0219 66.5262C63.1189 66.6232 63.1734 66.7547 63.1734 66.8919C63.1734 67.029 63.1189 67.1605 63.0219 67.2575C62.925 67.3545 62.7935 67.4089 62.6563 67.4089Z" fill="#0F50A4"/>
<path d="M62.6563 68.772H54.5942C54.3087 68.772 54.0771 69.0035 54.0771 69.2891C54.0771 69.5746 54.3087 69.8062 54.5942 69.8062H62.6563C62.9419 69.8062 63.1734 69.5746 63.1734 69.2891C63.1734 69.0035 62.9419 68.772 62.6563 68.772Z" fill="#0F50A4"/>
<path d="M61.8344 73.3479H45.6159C44.5924 73.3479 43.7627 74.1776 43.7627 75.2011V77.5054C43.7627 78.5289 44.5924 79.3586 45.6159 79.3586H61.8344C62.8579 79.3586 63.6876 78.5289 63.6876 77.5054V75.2011C63.6876 74.1776 62.8579 73.3479 61.8344 73.3479Z" fill="#E0E0E0"/>
<path d="M67.9435 58.3566L66.3128 37.4496C66.2468 36.6038 65.5077 35.9716 64.6618 36.0375L46.5658 37.449C45.72 37.515 45.0878 38.2542 45.1538 39.1L46.7845 60.0069C46.8505 60.8528 47.5896 61.485 48.4355 61.419L66.5315 60.0075C67.3773 59.9416 68.0095 59.2024 67.9435 58.3566Z" fill="white"/>
<path d="M48.3119 61.5231C47.9009 61.5223 47.5054 61.3663 47.2045 61.0864C46.9035 60.8065 46.7194 60.4232 46.689 60.0133L45.0584 39.1052C45.0256 38.6744 45.1649 38.2481 45.4458 37.9199C45.7266 37.5916 46.1262 37.3881 46.5569 37.3538L64.655 35.9422C65.0858 35.9094 65.512 36.0487 65.8403 36.3296C66.1686 36.6104 66.3721 37.01 66.4063 37.4407L68.0369 58.3488C68.0702 58.7799 67.9312 59.2066 67.6502 59.5353C67.3693 59.864 66.9695 60.0678 66.5384 60.102L48.4403 61.5118C48.3969 61.5231 48.3554 61.5231 48.3119 61.5231ZM46.8777 60.0133C46.9085 60.3934 47.0886 60.7458 47.3787 60.9934C47.6687 61.241 48.045 61.3636 48.4252 61.3344L66.5233 59.9227C66.9036 59.8914 67.256 59.7109 67.5035 59.4206C67.751 59.1303 67.8736 58.7538 67.8444 58.3734L66.2138 37.4652C66.183 37.0848 66.0026 36.7321 65.7122 36.4844C65.4217 36.2368 65.045 36.1144 64.6645 36.1442L46.5682 37.5558C46.1879 37.5871 45.8356 37.7676 45.588 38.0579C45.3405 38.3482 45.2179 38.7248 45.2472 39.1052L46.8777 60.0133Z" fill="#0F50A4"/>
<path d="M67.158 57.9864L66.7965 53.3524C66.7444 52.6842 66.1605 52.1848 65.4924 52.2369L48.2581 53.5812C47.5899 53.6333 47.0905 54.2172 47.1426 54.8854L47.5041 59.5194C47.5562 60.1876 48.1401 60.687 48.8082 60.6348L66.0425 59.2906C66.7107 59.2385 67.2101 58.6546 67.158 57.9864Z" fill="#0F50A4"/>
<path opacity="0.2" d="M56.9353 50.9602L55.9793 38.7043C55.9266 38.0279 55.3354 37.5223 54.659 37.575L47.0728 38.1667C46.3964 38.2195 45.8908 38.8107 45.9435 39.4871L46.8995 51.743C46.9523 52.4195 47.5434 52.9251 48.2199 52.8723L55.806 52.2806C56.4824 52.2279 56.988 51.6367 56.9353 50.9602Z" fill="#0F50A4"/>
<path opacity="0.2" d="M65.6754 39.7979L65.5133 37.7189C65.4709 37.1754 64.996 36.7692 64.4525 36.8116L57.952 37.3186C57.4086 37.361 57.0024 37.836 57.0448 38.3794L57.2069 40.4584C57.2493 41.0019 57.7242 41.4081 58.2677 41.3657L64.7682 40.8587C65.3116 40.8163 65.7178 40.3414 65.6754 39.7979Z" fill="#0F50A4"/>
<path opacity="0.4" d="M66.0885 45.1266L65.9264 43.0476C65.884 42.5042 65.4091 42.098 64.8656 42.1404L58.3651 42.6474C57.8216 42.6898 57.4155 43.1647 57.4578 43.7081L57.62 45.7872C57.6624 46.3306 58.1373 46.7368 58.6808 46.6944L65.1813 46.1874C65.7247 46.145 66.1309 45.6701 66.0885 45.1266Z" fill="#0F50A4"/>
<path opacity="0.6" d="M66.5075 50.4561L66.3453 48.3771C66.3029 47.8336 65.828 47.4274 65.2845 47.4698L58.7841 47.9769C58.2406 48.0192 57.8344 48.4942 57.8768 49.0376L58.039 51.1166C58.0814 51.6601 58.5563 52.0663 59.0997 52.0239L65.6002 51.5169C66.1437 51.4745 66.5499 50.9996 66.5075 50.4561Z" fill="#0F50A4"/>
<path d="M59.8226 35.4797H57.4259C57.3304 35.4796 57.2375 35.4487 57.161 35.3916C57.0845 35.3345 57.0285 35.2542 57.0013 35.1627L56.4861 33.4114C56.4671 33.3455 56.4637 33.2761 56.476 33.2086C56.4884 33.1411 56.5163 33.0775 56.5574 33.0226C56.5986 32.9677 56.6519 32.9232 56.7132 32.8924C56.7745 32.8616 56.8421 32.8455 56.9107 32.8452H60.3378C60.4064 32.8455 60.474 32.8616 60.5353 32.8924C60.5966 32.9232 60.6499 32.9677 60.691 33.0226C60.7322 33.0775 60.76 33.1411 60.7724 33.2086C60.7848 33.2761 60.7814 33.3455 60.7624 33.4114L60.2472 35.1627C60.2203 35.2544 60.1643 35.3348 60.0878 35.392C60.0112 35.4491 59.9182 35.4799 59.8226 35.4797Z" fill="#0A0B09"/>
<path d="M58.6233 38.1938C58.5663 38.1938 58.5116 38.1711 58.4712 38.1308C58.4309 38.0904 58.4082 38.0357 58.4082 37.9787C58.4082 37.9216 58.4309 37.8669 58.4712 37.8265C58.5116 37.7862 58.5663 37.7635 58.6233 37.7635C58.8235 37.7635 59.0156 37.684 59.1571 37.5424C59.2987 37.4008 59.3782 37.2088 59.3782 37.0086C59.3782 36.8084 59.2987 36.6164 59.1571 36.4749C59.0156 36.3333 58.8235 36.2538 58.6233 36.2538C58.5663 36.2538 58.5116 36.2311 58.4712 36.1907C58.4309 36.1504 58.4082 36.0957 58.4082 36.0386V35.48C58.4132 35.4262 58.4382 35.3762 58.4781 35.3398C58.5181 35.3034 58.5702 35.2832 58.6243 35.2832C58.6783 35.2832 58.7305 35.3034 58.7704 35.3398C58.8104 35.3762 58.8353 35.4262 58.8404 35.48V35.8405C59.13 35.8954 59.3888 36.0563 59.5662 36.2918C59.7435 36.5272 59.8268 36.8203 59.7997 37.1139C59.7726 37.4074 59.637 37.6803 59.4195 37.8793C59.202 38.0783 58.9181 38.1891 58.6233 38.19V38.1938Z" fill="#0A0B09"/>
<path d="M58.902 21.4504V22.0293L59.134 22.4343C59.134 22.5633 59.0828 22.6871 58.9918 22.7786C58.9007 22.87 58.7771 22.9216 58.6481 22.9222V22.9222C58.5187 22.9219 58.3948 22.8704 58.3034 22.779C58.2119 22.6875 58.1604 22.5636 58.1602 22.4343V22.0293" stroke="#0A0B09" stroke-width="0.5" stroke-linecap="round" stroke-linejoin="round"/>
<path d="M59.4055 20.3385H58.4297V21.4223H59.4055V20.3385Z" fill="white" stroke="#0A0B09" stroke-width="0.5" stroke-linecap="round" stroke-linejoin="round"/>
<path d="M59.767 18.8848H58.0693V21.0614H59.767V18.8848Z" fill="white" stroke="#0A0B09" stroke-width="0.5" stroke-linecap="round" stroke-linejoin="round"/>
<path d="M60.2726 19.9774H57.5811V20.6453H60.2726V19.9774Z" fill="white" stroke="#0A0B09" stroke-width="0.5" stroke-linecap="round" stroke-linejoin="round"/>
<mask id="path-58-inside-1" fill="white">
<path d="M58.9181 19.9774H58.5332L57.9883 20.5953L58.0453 20.6453H58.3292L58.9181 19.9774Z"/>
</mask>
<path d="M58.9181 19.9774H58.5332L57.9883 20.5953L58.0453 20.6453H58.3292L58.9181 19.9774Z" fill="#263238"/>
<path d="M58.9181 19.9774L59.2931 20.3081L60.0256 19.4774H58.9181V19.9774ZM58.5332 19.9774V19.4774H58.3075L58.1582 19.6467L58.5332 19.9774ZM57.9883 20.5953L57.6133 20.2646L57.2817 20.6406L57.6586 20.9712L57.9883 20.5953ZM58.0453 20.6453L57.7155 21.0212L57.857 21.1453H58.0453V20.6453ZM58.3292 20.6453V21.1453H58.555L58.7042 20.976L58.3292 20.6453ZM58.9181 19.4774H58.5332V20.4774H58.9181V19.4774ZM58.1582 19.6467L57.6133 20.2646L58.3633 20.926L58.9082 20.3081L58.1582 19.6467ZM57.6586 20.9712L57.7155 21.0212L58.375 20.2694L58.318 20.2194L57.6586 20.9712ZM58.0453 21.1453H58.3292V20.1453H58.0453V21.1453ZM58.7042 20.976L59.2931 20.3081L58.5431 19.6467L57.9542 20.3146L58.7042 20.976Z" fill="#0A0B09" mask="url(#path-58-inside-1)"/>
<mask id="path-60-inside-2" fill="white">
<path d="M57.792 19.9774L57.5811 20.2164V20.6453H57.5881L58.1779 19.9774H57.792Z"/>
</mask>
<path d="M57.792 19.9774L57.5811 20.2164V20.6453H57.5881L58.1779 19.9774H57.792Z" fill="#263238"/>
<path d="M57.792 19.9774V19.4774H57.5665L57.4172 19.6465L57.792 19.9774ZM57.5811 20.2164L57.2062 19.8855L57.0811 20.0272V20.2164H57.5811ZM57.5811 20.6453H57.0811V21.1453H57.5811V20.6453ZM57.5881 20.6453V21.1453H57.8135L57.9628 20.9763L57.5881 20.6453ZM58.1779 19.9774L58.5527 20.3084L59.2867 19.4774H58.1779V19.9774ZM57.4172 19.6465L57.2062 19.8855L57.9559 20.5473L58.1668 20.3083L57.4172 19.6465ZM57.0811 20.2164V20.6453H58.0811V20.2164H57.0811ZM57.5811 21.1453H57.5881V20.1453H57.5811V21.1453ZM57.9628 20.9763L58.5527 20.3084L57.8032 19.6464L57.2133 20.3143L57.9628 20.9763ZM58.1779 19.4774H57.792V20.4774H58.1779V19.4774Z" fill="#0A0B09" mask="url(#path-60-inside-2)"/>
<mask id="path-62-inside-3" fill="white">
<path d="M59.6583 19.9774H59.2734L58.7285 20.5953L58.7855 20.6453H59.0695L59.6583 19.9774Z"/>
</mask>
<path d="M59.6583 19.9774H59.2734L58.7285 20.5953L58.7855 20.6453H59.0695L59.6583 19.9774Z" fill="#263238"/>
<path d="M59.6583 19.9774L60.0334 20.3081L60.7658 19.4774H59.6583V19.9774ZM59.2734 19.9774V19.4774H59.0477L58.8984 19.6467L59.2734 19.9774ZM58.7285 20.5953L58.3535 20.2646L58.0219 20.6406L58.3988 20.9712L58.7285 20.5953ZM58.7855 20.6453L58.4558 21.0212L58.5973 21.1453H58.7855V20.6453ZM59.0695 20.6453V21.1453H59.2952L59.4445 20.976L59.0695 20.6453ZM59.6583 19.4774H59.2734V20.4774H59.6583V19.4774ZM58.8984 19.6467L58.3535 20.2646L59.1035 20.926L59.6484 20.3081L58.8984 19.6467ZM58.3988 20.9712L58.4558 21.0212L59.1152 20.2694L59.0582 20.2194L58.3988 20.9712ZM58.7855 21.1453H59.0695V20.1453H58.7855V21.1453ZM59.4445 20.976L60.0334 20.3081L59.2833 19.6467L58.6944 20.3146L59.4445 20.976Z" fill="#0A0B09" mask="url(#path-62-inside-3)"/>
<mask id="path-64-inside-4" fill="white">
<path d="M60.2726 20.1204V19.9774H60.0136L59.4688 20.5953L59.5267 20.6453H59.8097L60.2726 20.1204Z"/>
</mask>
<path d="M60.2726 20.1204V19.9774H60.0136L59.4688 20.5953L59.5267 20.6453H59.8097L60.2726 20.1204Z" fill="#263238"/>
<path d="M60.2726 20.1204L60.6476 20.4511L60.7726 20.3094V20.1204H60.2726ZM60.2726 19.9774H60.7726V19.4774H60.2726V19.9774ZM60.0136 19.9774V19.4774H59.7879L59.6386 19.6467L60.0136 19.9774ZM59.4688 20.5953L59.0937 20.2646L58.7593 20.6438L59.1423 20.974L59.4688 20.5953ZM59.5267 20.6453L59.2003 21.024L59.341 21.1453H59.5267V20.6453ZM59.8097 20.6453V21.1453H60.0354L60.1847 20.976L59.8097 20.6453ZM60.7726 20.1204V19.9774H59.7726V20.1204H60.7726ZM60.2726 19.4774H60.0136V20.4774H60.2726V19.4774ZM59.6386 19.6467L59.0937 20.2646L59.8438 20.926L60.3887 20.3081L59.6386 19.6467ZM59.1423 20.974L59.2003 21.024L59.8532 20.2666L59.7952 20.2166L59.1423 20.974ZM59.5267 21.1453H59.8097V20.1453H59.5267V21.1453ZM60.1847 20.976L60.6476 20.4511L59.8976 19.7897L59.4347 20.3146L60.1847 20.976Z" fill="#0A0B09" mask="url(#path-64-inside-4)"/>
<path d="M58.8799 18.8469V17.5371" stroke="#0A0B09" stroke-width="0.5" stroke-linecap="round" stroke-linejoin="round"/>
<path d="M82.8203 1.26428L82.8091 5.20574L82.18 6.41228L82.1912 2.47082L82.8203 1.26428Z" fill="#1E72C6"/>
<path d="M82.1924 2.47083L82.1812 6.41228L80.2702 7.52288L80.2813 3.58133L82.1924 2.47083Z" fill="#0F50A4"/>
<path d="M80.2812 3.58125L80.2701 7.52279L76.628 5.42006L76.6392 1.47852L80.2812 3.58125Z" fill="#6B9EF9"/>
<path d="M82.8213 1.26426L82.1922 2.47079L80.2812 3.5813L76.6391 1.47857L78.5501 0.368059L80.6318 0.00012207L82.8213 1.26426Z" fill="#A6C2FF"/>
<path d="M57.0082 16.9481L77.9795 4.76086L77.978 5.28199L57.0067 17.4692L57.0082 16.9481Z" fill="#0F50A4"/>
<path d="M56.5538 16.6857L77.5252 4.49854L77.9795 4.76082L57.0082 16.9481L56.5538 16.6857Z" fill="#A6C2FF"/>
<path d="M57.0078 16.948L57.0064 17.4692L56.5519 17.2069L56.5535 16.6857L57.0078 16.948Z" fill="#0F50A4"/>
<path d="M57.3493 16.7477L57.6712 16.5605L59.1309 17.4033L58.809 17.5904L57.3493 16.7477Z" fill="#A6C2FF"/>
<path d="M57.3558 15.0704L57.6777 14.8833L57.673 16.5605L57.351 16.7476L57.3558 15.0704Z" fill="#1E72C6"/>
<path d="M59.1859 15.7012L59.5078 15.5142L59.5007 18.0428L59.1787 18.2298L59.1859 15.7012Z" fill="#1E72C6"/>
<path d="M56.9853 14.4308L57.3072 14.2438L59.5078 15.5143L59.1859 15.7013L56.9853 14.4308Z" fill="#A6C2FF"/>
<path d="M56.9778 16.9594L59.1784 18.2299L59.1855 15.7013L56.985 14.4308L56.9778 16.9594ZM58.8092 17.5904L57.3496 16.7477L57.3543 15.0705L58.8139 15.9132L58.8092 17.5904Z" fill="#0F50A4"/>
<path d="M60.8444 14.7164L61.1664 14.5293L62.626 15.3721L62.3041 15.5592L60.8444 14.7164Z" fill="#A6C2FF"/>
<path d="M60.85 13.0392L61.1719 12.8522L61.1671 14.5294L60.8452 14.7165L60.85 13.0392Z" fill="#1E72C6"/>
<path d="M62.6811 13.6701L63.0029 13.483L62.9958 16.0116L62.6739 16.1987L62.6811 13.6701Z" fill="#1E72C6"/>
<path d="M60.4804 12.3996L60.8024 12.2125L63.0029 13.483L62.6811 13.6701L60.4804 12.3996Z" fill="#A6C2FF"/>
<path d="M60.473 14.9283L62.6735 16.1988L62.6807 13.6702L60.4801 12.3997L60.473 14.9283ZM62.3043 15.5593L60.8447 14.7165L60.8494 13.0393L62.309 13.8821L62.3043 15.5593Z" fill="#0F50A4"/>
<path d="M64.3386 12.6852L64.6604 12.498L66.1201 13.3409L65.7982 13.5279L64.3386 12.6852Z" fill="#A6C2FF"/>
<path d="M64.3451 11.008L64.667 10.8209L64.6623 12.4981L64.3404 12.6853L64.3451 11.008Z" fill="#1E72C6"/>
<path d="M66.1752 11.6388L66.4971 11.4518L66.4899 13.9804L66.168 14.1675L66.1752 11.6388Z" fill="#1E72C6"/>
<path d="M63.9756 10.3685L64.2975 10.1814L66.498 11.4519L66.1762 11.639L63.9756 10.3685Z" fill="#A6C2FF"/>
<path d="M63.9671 12.8969L66.1677 14.1674L66.1748 11.6388L63.9743 10.3683L63.9671 12.8969ZM65.7984 13.5279L64.3388 12.6852L64.3436 11.008L65.8032 11.8506L65.7984 13.5279Z" fill="#0F50A4"/>
<path d="M67.8356 10.6542L68.1575 10.467L69.6172 11.3099L69.2952 11.4969L67.8356 10.6542Z" fill="#A6C2FF"/>
<path d="M67.8412 8.97686L68.1631 8.78979L68.1583 10.467L67.8364 10.6541L67.8412 8.97686Z" fill="#1E72C6"/>
<path d="M69.6722 9.60772L69.9941 9.42065L69.9869 11.9492L69.6651 12.1363L69.6722 9.60772Z" fill="#1E72C6"/>
<path d="M67.4716 8.33721L67.7936 8.15015L69.9941 9.42064L69.6722 9.6077L67.4716 8.33721Z" fill="#A6C2FF"/>
<path d="M67.4642 10.8659L69.6647 12.1364L69.6719 9.60778L67.4713 8.33728L67.4642 10.8659ZM69.2954 11.4969L67.8358 10.6542L67.8406 8.97696L69.3002 9.81968L69.2954 11.4969Z" fill="#0F50A4"/>
<path d="M71.3298 8.62282L71.6517 8.43567L73.1113 9.27848L72.7894 9.46554L71.3298 8.62282Z" fill="#A6C2FF"/>
<path d="M71.3353 6.94561L71.6572 6.75854L71.6525 8.43574L71.3306 8.62289L71.3353 6.94561Z" fill="#1E72C6"/>
<path d="M73.1653 7.57634L73.4873 7.38928L73.4801 9.91789L73.1582 10.105L73.1653 7.57634Z" fill="#1E72C6"/>
<path d="M70.9658 6.30596L71.2877 6.1189L73.4883 7.38938L73.1663 7.57645L70.9658 6.30596Z" fill="#A6C2FF"/>
<path d="M70.9573 8.83439L73.1579 10.1049L73.165 7.57628L70.9645 6.30579L70.9573 8.83439ZM72.7886 9.46538L71.329 8.62266L71.3337 6.94546L72.7933 7.78818L72.7886 9.46538Z" fill="#0F50A4"/>
<path d="M74.8259 6.59169L75.1478 6.40454L76.6074 7.24735L76.2856 7.43441L74.8259 6.59169Z" fill="#A6C2FF"/>
<path d="M74.8314 4.91436L75.1533 4.72729L75.1486 6.40449L74.8266 6.59164L74.8314 4.91436Z" fill="#1E72C6"/>
<path d="M76.6614 5.54534L76.9834 5.35828L76.9763 7.88688L76.6543 8.07394L76.6614 5.54534Z" fill="#1E72C6"/>
<path d="M74.4619 4.27483L74.7838 4.08777L76.9844 5.35826L76.6624 5.54532L74.4619 4.27483Z" fill="#A6C2FF"/>
<path d="M74.4534 6.80338L76.654 8.07387L76.6611 5.54527L74.4606 4.27478L74.4534 6.80338ZM76.2848 7.43437L74.8252 6.59165L74.8299 4.91445L76.2895 5.75717L76.2848 7.43437Z" fill="#0F50A4"/>
<path d="M58.7543 17.9562L79.7256 5.76904L79.7241 6.29017L58.7527 18.4774L58.7543 17.9562Z" fill="#0F50A4"/>
<path d="M58.3006 17.6943L79.272 5.50708L79.7256 5.76902L58.7543 17.9562L58.3006 17.6943Z" fill="#A6C2FF"/>
<path d="M58.7529 17.9562L58.7514 18.4774L58.2978 18.2156L58.2993 17.6943L58.7529 17.9562Z" fill="#0F50A4"/>
<path d="M58.7601 15.9488L79.7314 3.7616L79.73 4.28281L58.7587 16.47L58.7601 15.9488Z" fill="#0F50A4"/>
<path d="M58.3066 15.6869L79.2779 3.49976L79.7314 3.76161L58.7601 15.9488L58.3066 15.6869Z" fill="#A6C2FF"/>
<path d="M58.7598 15.9488L58.7583 16.47L58.3047 16.2081L58.3062 15.6869L58.7598 15.9488Z" fill="#0F50A4"/>
<path d="M57.014 14.9405L77.9854 2.7533L77.9839 3.27451L57.0126 15.4617L57.014 14.9405Z" fill="#0F50A4"/>
<path d="M56.5597 14.6783L77.531 2.49109L77.9854 2.75337L57.014 14.9406L56.5597 14.6783Z" fill="#A6C2FF"/>
<path d="M57.0137 14.9405L57.0122 15.4617L56.5579 15.1994L56.5593 14.6782L57.0137 14.9405Z" fill="#0F50A4"/>
<path d="M76.1163 38.1227L71.8224 35.5853L71.8351 32.7882L76.1289 35.3257L76.1163 38.1227Z" fill="#0F50A4"/>
<path d="M76.462 30.1609L80.7559 32.6982L76.1276 35.3258L71.8338 32.7884L76.462 30.1609Z" fill="#6B9EF9"/>
<path d="M76.1267 35.3257L80.7549 32.6984L80.7423 35.4954L76.114 38.1227L76.1267 35.3257Z" fill="#A6C2FF"/>
<path d="M76.4209 7.94566L76.3111 32.201L75.8625 31.9359L75.9722 7.68054L76.4209 7.94566Z" fill="#0F50A4"/>
<path d="M76.877 7.68665L76.7672 31.942L76.3109 32.201L76.4206 7.94566L76.877 7.68665Z" fill="#A6C2FF"/>
<path d="M76.4216 7.94565L75.973 7.68053L76.4293 7.42151L76.8779 7.68663L76.4216 7.94565Z" fill="#0F50A4"/>
<path d="M76.4219 8.3418L76.4202 8.71412L74.9544 9.54627L74.9561 9.17395L76.4219 8.3418Z" fill="#A6C2FF"/>
<path d="M77.8652 9.19501L77.8635 9.56733L76.4197 8.71412L76.4214 8.3418L77.8652 9.19501Z" fill="#1E72C6"/>
<path d="M76.3936 10.4549L76.3918 10.8272L74.2151 9.54078L74.2167 9.16846L76.3936 10.4549Z" fill="#1E72C6"/>
<path d="M78.6035 9.20044L78.6019 9.57276L76.392 10.8273L76.3938 10.4549L78.6035 9.20044Z" fill="#A6C2FF"/>
<path d="M76.4277 7.91406L74.2178 9.16857L76.3947 10.4549L78.6045 9.20038L76.4277 7.91406ZM74.9563 9.17399L76.4221 8.34183L77.866 9.19505L76.4002 10.0272L74.9563 9.17399Z" fill="#0F50A4"/>
<path d="M76.4043 12.3844L76.4027 12.7567L74.9369 13.5889L74.9386 13.2165L76.4043 12.3844Z" fill="#A6C2FF"/>
<path d="M77.8477 13.2376L77.846 13.6099L76.4021 12.7567L76.4038 12.3844L77.8477 13.2376Z" fill="#1E72C6"/>
<path d="M76.377 14.4976L76.3752 14.8699L74.1985 13.5835L74.2001 13.2112L76.377 14.4976Z" fill="#1E72C6"/>
<path d="M78.5859 13.243L78.5842 13.6154L76.3744 14.8699L76.3761 14.4976L78.5859 13.243Z" fill="#A6C2FF"/>
<path d="M76.4101 11.9567L74.2002 13.2112L76.3771 14.4975L78.5869 13.243L76.4101 11.9567ZM74.9388 13.2166L76.4046 12.3844L77.8485 13.2376L76.3827 14.0698L74.9388 13.2166Z" fill="#0F50A4"/>
<path d="M76.3848 16.4269L76.383 16.7992L74.9172 17.6313L74.919 17.259L76.3848 16.4269Z" fill="#A6C2FF"/>
<path d="M77.8281 17.2801L77.8265 17.6524L76.3826 16.7992L76.3843 16.4269L77.8281 17.2801Z" fill="#1E72C6"/>
<path d="M76.3564 18.5401L76.3548 18.9124L74.178 17.626L74.1797 17.2537L76.3564 18.5401Z" fill="#1E72C6"/>
<path d="M78.5664 17.2855L78.5647 17.6578L76.3549 18.9123L76.3566 18.54L78.5664 17.2855Z" fill="#A6C2FF"/>
<path d="M76.3906 15.9991L74.1807 17.2536L76.3575 18.54L78.5674 17.2855L76.3906 15.9991ZM74.9192 17.2591L76.385 16.4269L77.8289 17.2801L76.3631 18.1123L74.9192 17.2591Z" fill="#0F50A4"/>
<path d="M76.3662 20.4695L76.3645 20.8418L74.8987 21.6739L74.9004 21.3015L76.3662 20.4695Z" fill="#A6C2FF"/>
<path d="M77.8096 21.3227L77.8079 21.695L76.364 20.8418L76.3658 20.4695L77.8096 21.3227Z" fill="#1E72C6"/>
<path d="M76.3389 22.5827L76.3372 22.955L74.1604 21.6686L74.1621 21.2963L76.3389 22.5827Z" fill="#1E72C6"/>
<path d="M78.5479 21.3281L78.5461 21.7004L76.3364 22.9549L76.338 22.5826L78.5479 21.3281Z" fill="#A6C2FF"/>
<path d="M76.372 20.0417L74.1622 21.2962L76.339 22.5825L78.5488 21.3281L76.372 20.0417ZM74.9007 21.3016L76.3665 20.4694L77.8104 21.3226L76.3446 22.1548L74.9007 21.3016Z" fill="#0F50A4"/>
<path d="M76.3496 24.512L76.3479 24.8843L74.8821 25.7164L74.8838 25.344L76.3496 24.512Z" fill="#A6C2FF"/>
<path d="M77.793 25.3652L77.7912 25.7375L76.3474 24.8843L76.3491 24.512L77.793 25.3652Z" fill="#1E72C6"/>
<path d="M76.3213 26.6251L76.3196 26.9975L74.1427 25.7111L74.1445 25.3387L76.3213 26.6251Z" fill="#1E72C6"/>
<path d="M78.5312 25.3706L78.5296 25.7429L76.3198 26.9974L76.3215 26.6251L78.5312 25.3706Z" fill="#A6C2FF"/>
<path d="M76.3544 24.0842L74.1446 25.3387L76.3214 26.625L78.5312 25.3705L76.3544 24.0842ZM74.8831 25.3441L76.3489 24.5119L77.7928 25.3651L76.327 26.1973L74.8831 25.3441Z" fill="#0F50A4"/>
<path d="M76.3311 28.5546L76.3293 28.9269L74.8636 29.759L74.8652 29.3866L76.3311 28.5546Z" fill="#A6C2FF"/>
<path d="M77.7744 29.4078L77.7727 29.7801L76.3288 28.9269L76.3305 28.5546L77.7744 29.4078Z" fill="#1E72C6"/>
<path d="M76.3027 30.6676L76.301 31.0399L74.1242 29.7535L74.1259 29.3812L76.3027 30.6676Z" fill="#1E72C6"/>
<path d="M78.5127 29.4132L78.5111 29.7855L76.3012 31.04L76.3029 30.6677L78.5127 29.4132Z" fill="#A6C2FF"/>
<path d="M76.3359 28.1268L74.126 29.3813L76.3029 30.6676L78.5127 29.4131L76.3359 28.1268ZM74.8645 29.3867L76.3303 28.5545L77.7742 29.4077L76.3084 30.2399L74.8645 29.3867Z" fill="#0F50A4"/>
<path d="M74.666 8.94114L74.5562 33.1965L74.1076 32.9314L74.2174 8.67603L74.666 8.94114Z" fill="#0F50A4"/>
<path d="M75.123 8.68262L75.0134 32.938L74.5578 33.1966L74.6676 8.9412L75.123 8.68262Z" fill="#A6C2FF"/>
<path d="M74.6676 8.94106L74.2189 8.67594L74.6744 8.41736L75.123 8.68247L74.6676 8.94106Z" fill="#0F50A4"/>
<path d="M76.3965 9.96247L76.2867 34.2177L75.838 33.9526L75.9477 9.69727L76.3965 9.96247Z" fill="#0F50A4"/>
<path d="M76.8516 9.70386L76.7418 33.9592L76.2863 34.2177L76.3961 9.96244L76.8516 9.70386Z" fill="#A6C2FF"/>
<path d="M76.3971 9.96239L75.9483 9.69718L76.4039 9.4386L76.8525 9.7038L76.3971 9.96239Z" fill="#0F50A4"/>
<path d="M78.1494 8.96699L78.0396 33.2222L77.591 32.9571L77.7007 8.70178L78.1494 8.96699Z" fill="#0F50A4"/>
<path d="M78.6055 8.70789L78.4958 32.9631L78.0395 33.2221L78.1492 8.9669L78.6055 8.70789Z" fill="#A6C2FF"/>
<path d="M78.1502 8.96699L77.7015 8.70177L78.1578 8.44275L78.6064 8.70796L78.1502 8.96699Z" fill="#0F50A4"/>
<path d="M75.6276 9.58914L72.9609 8.03943L72.9632 8.86057L75.6299 10.4103L75.6276 9.58914Z" fill="#0F50A4"/>
<path d="M77.7725 5.86624L75.1058 4.31653L72.9612 8.03937L75.6279 9.58908L77.7725 5.86624Z" fill="#6B9EF9"/>
<path d="M77.3838 5.9701L75.2102 4.70691L73.3504 7.93563L75.5239 9.19881L77.3838 5.9701Z" fill="#DEE7F8"/>
<path d="M79.3125 4.97818L76.6458 3.42847L75.1076 4.31658L77.7742 5.8663L79.3125 4.97818Z" fill="#A6C2FF"/>
<path d="M77.7727 5.86627L75.6281 9.58912L75.6304 10.4103L79.3203 8.27986L79.3109 4.97815L77.7727 5.86627Z" fill="#1E72C6"/>
<path d="M77.9813 6.07509L78.4639 5.79639V8.44517L75.9134 9.91733L75.913 9.6652L77.9813 6.07509Z" fill="#DEE7F8"/>
<rect x="58.6143" y="22.6951" width="0.257898" height="10.3159" rx="0.128949" fill="#0A0B09"/>
</svg>
